<?xml version="1.0" standalone="no"?>
<svg xmlns="http://www.w3.org/2000/svg" viewBox="0 0 166.5 27.749" width="166.5" height="27.749"><path fill="#5e24c3" fill-rule="nonzero" d="M2.54 19.44L0 19.44L4.13 0L6.74 0L10.90 19.44L8.33 19.44L7.44 14.54L3.48 14.54L2.54 19.44ZM5.45 3.84L3.84 12.60L7.08 12.60L5.45 3.84ZM15.46 19.44L12.89 19.44L12.89 0L15.46 0L15.46 19.44ZM21.98 19.63L21.98 19.63Q20.35 19.63 19.46 19.00Q18.58 18.36 18.23 17.12Q17.88 15.89 17.88 14.09L17.88 14.09L17.88 10.92Q17.88 9.07 18.24 7.85Q18.60 6.62 19.50 6.00Q20.40 5.38 21.98 5.38L21.98 5.38Q23.74 5.38 24.56 6.10Q25.39 6.82 25.66 8.17Q25.92 9.53 25.92 11.42L25.92 11.42L25.92 12.55L20.45 12.55L20.45 15.34Q20.45 16.18 20.60 16.70Q20.76 17.23 21.11 17.48Q21.46 17.74 22.01 17.74L22.01 17.74Q22.58 17.74 22.88 17.46Q23.18 17.18 23.29 16.67Q23.40 16.15 23.40 15.46L23.40 15.46L23.40 14.62L25.90 14.62L25.90 15.14Q25.90 17.23 25.01 18.43Q24.12 19.63 21.98 19.63ZM20.45 10.42L20.45 11.16L23.40 11.16L23.40 9.91Q23.40 9.05 23.30 8.46Q23.21 7.87 22.91 7.57Q22.61 7.27 21.96 7.27L21.96 7.27Q21.34 7.27 21.01 7.56Q20.69 7.85 20.57 8.53Q20.45 9.22 20.45 10.42L20.45 10.42ZM36.67 19.44L33.96 19.44L33.96 0L41.47 0L41.47 1.94L36.67 1.94L36.67 8.42L40.39 8.42L40.39 10.34L36.67 10.34L36.67 19.44ZM46.97 19.63L46.97 19.63Q45.34 19.63 44.45 19.00Q43.56 18.36 43.21 17.12Q42.86 15.89 42.86 14.09L42.86 14.09L42.86 10.92Q42.86 9.07 43.22 7.85Q43.58 6.62 44.48 6.00Q45.38 5.38 46.97 5.38L46.97 5.38Q48.72 5.38 49.55 6.10Q50.38 6.82 50.64 8.17Q50.90 9.53 50.90 11.42L50.90 11.42L50.90 12.55L45.43 12.55L45.43 15.34Q45.43 16.18 45.59 16.70Q45.74 17.23 46.09 17.48Q46.44 17.74 46.99 17.74L46.99 17.74Q47.57 17.74 47.87 17.46Q48.17 17.18 48.28 16.67Q48.38 16.15 48.38 15.46L48.38 15.46L48.38 14.62L50.88 14.62L50.88 15.14Q50.88 17.23 49.99 18.43Q49.10 19.63 46.97 19.63ZM45.43 10.42L45.43 11.16L48.38 11.16L48.38 9.91Q48.38 9.05 48.29 8.46Q48.19 7.87 47.89 7.57Q47.59 7.27 46.94 7.27L46.94 7.27Q46.32 7.27 46.00 7.56Q45.67 7.85 45.55 8.53Q45.43 9.22 45.43 10.42L45.43 10.42ZM55.87 19.44L53.30 19.44L53.30 5.57L55.87 5.57L55.87 7.54Q56.64 6.26 57.41 5.83Q58.18 5.40 58.94 5.40L58.94 5.40Q59.04 5.40 59.12 5.40Q59.21 5.40 59.35 5.42L59.35 5.42L59.35 8.26Q59.06 8.14 58.69 8.05Q58.32 7.97 57.94 7.97L57.94 7.97Q57.34 7.97 56.84 8.24Q56.35 8.52 55.87 9.31L55.87 9.31L55.87 19.44ZM63.50 19.44L60.94 19.44L60.94 5.57L63.50 5.57L63.50 6.94Q64.20 6.29 65.04 5.83Q65.88 5.38 66.89 5.38L66.89 5.38Q67.73 5.38 68.17 5.81Q68.62 6.24 68.80 6.89Q68.98 7.54 68.98 8.21L68.98 8.21L68.98 19.44L66.41 19.44L66.41 8.95Q66.41 8.21 66.19 7.80Q65.98 7.39 65.30 7.39L65.30 7.39Q64.87 7.39 64.40 7.64Q63.94 7.90 63.50 8.26L63.50 8.26L63.50 19.44ZM73.97 19.63L73.97 19.63Q73.15 19.63 72.53 19.16Q71.90 18.70 71.54 17.96Q71.18 17.23 71.18 16.42L71.18 16.42Q71.18 15.12 71.62 14.23Q72.05 13.34 72.80 12.73Q73.56 12.12 74.56 11.66Q75.55 11.21 76.66 10.78L76.66 10.78L76.66 9.79Q76.66 8.95 76.56 8.40Q76.46 7.85 76.16 7.57Q75.86 7.30 75.26 7.30L75.26 7.30Q74.74 7.30 74.41 7.54Q74.09 7.78 73.94 8.22Q73.80 8.66 73.80 9.26L73.80 9.26L73.80 9.96L71.26 9.86Q71.30 7.56 72.31 6.47Q73.32 5.38 75.43 5.38L75.43 5.38Q77.50 5.38 78.36 6.50Q79.22 7.63 79.22 9.77L79.22 9.77L79.22 16.10Q79.22 16.75 79.26 17.35Q79.30 17.95 79.36 18.47Q79.42 18.98 79.46 19.44L79.46 19.44L77.11 19.44Q77.04 19.06 76.93 18.47Q76.82 17.88 76.78 17.40L76.78 17.40Q76.54 18.22 75.85 18.92Q75.17 19.63 73.97 19.63ZM74.98 17.42L74.98 17.42Q75.36 17.42 75.70 17.21Q76.03 16.99 76.30 16.72Q76.56 16.44 76.66 16.27L76.66 16.27L76.66 12.34Q76.06 12.67 75.53 13.01Q75 13.34 74.60 13.72Q74.21 14.09 73.98 14.56Q73.75 15.02 73.75 15.62L73.75 15.62Q73.75 16.46 74.06 16.94Q74.38 17.42 74.98 17.42ZM84.26 19.44L81.70 19.44L81.70 5.57L84.26 5.57L84.26 6.94Q84.96 6.29 85.80 5.83Q86.64 5.38 87.65 5.38L87.65 5.38Q88.49 5.38 88.93 5.81Q89.38 6.24 89.56 6.89Q89.74 7.54 89.74 8.21L89.74 8.21L89.74 19.44L87.17 19.44L87.17 8.95Q87.17 8.21 86.95 7.80Q86.74 7.39 86.06 7.39L86.06 7.39Q85.63 7.39 85.16 7.64Q84.70 7.90 84.26 8.26L84.26 8.26L84.26 19.44ZM95.45 19.63L95.45 19.63Q93.70 19.63 92.83 18.35Q91.97 17.06 91.97 13.99L91.97 13.99L91.97 11.30Q91.97 9.72 92.23 8.36Q92.50 7.01 93.23 6.19Q93.96 5.38 95.38 5.38L95.38 5.38Q96.07 5.38 96.65 5.69Q97.22 6.00 97.68 6.46L97.68 6.46L97.68 0L100.25 0L100.25 19.44L97.68 19.44L97.68 18.55Q97.22 19.03 96.68 19.33Q96.14 19.63 95.45 19.63ZM96.10 17.62L96.10 17.62Q96.46 17.62 96.86 17.48Q97.27 17.35 97.68 17.09L97.68 17.09L97.68 7.99Q97.34 7.75 96.94 7.57Q96.53 7.39 96.05 7.39L96.05 7.39Q95.16 7.39 94.85 8.24Q94.54 9.10 94.54 10.30L94.54 10.30L94.54 14.21Q94.54 15.17 94.64 15.95Q94.75 16.73 95.09 17.17Q95.42 17.62 96.10 17.62ZM106.68 19.63L106.68 19.63Q105.05 19.63 104.16 19.00Q103.27 18.36 102.92 17.12Q102.58 15.89 102.58 14.09L102.58 14.09L102.58 10.92Q102.58 9.07 102.94 7.85Q103.30 6.62 104.20 6.00Q105.10 5.38 106.68 5.38L106.68 5.38Q108.43 5.38 109.26 6.10Q110.09 6.82 110.35 8.17Q110.62 9.53 110.62 11.42L110.62 11.42L110.62 12.55L105.14 12.55L105.14 15.34Q105.14 16.18 105.30 16.70Q105.46 17.23 105.80 17.48Q106.15 17.74 106.70 17.74L106.70 17.74Q107.28 17.74 107.58 17.46Q107.88 17.18 107.99 16.67Q108.10 16.15 108.10 15.46L108.10 15.46L108.10 14.62L110.59 14.62L110.59 15.14Q110.59 17.23 109.70 18.43Q108.82 19.63 106.68 19.63ZM105.14 10.42L105.14 11.16L108.10 11.16L108.10 9.91Q108.10 9.05 108.00 8.46Q107.90 7.87 107.60 7.57Q107.30 7.27 106.66 7.27L106.66 7.27Q106.03 7.27 105.71 7.56Q105.38 7.85 105.26 8.53Q105.14 9.22 105.14 10.42L105.14 10.42ZM119.33 19.44L112.42 19.44L112.42 17.71L116.66 7.49L112.85 7.49L112.85 5.57L119.42 5.57L119.42 6.96L115.15 17.50L119.33 17.50L119.33 19.44Z" transform="translate(0, 4.059)"></path><line x1="128.424" y1="2%" x2="128.424" y2="98%" stroke="#5e24c3" stroke-linecap="round"></line><g fill="#6a8bff" color="#6a8bff" transform="translate(137.424 0) scale(0.272931)"><svg width="106.254" height="101.667" x="0.0" y="0.0" viewBox="0 0 106.254 101.667"><path style="" d="m 81.26313,1.1820999 -56.990864,0 c -15.2742009,0 -20.7966679,5.311508 -20.7966679,21.1799071 l 0,57.192378 c 0,15.372525 5.522467,20.930515 20.7966679,20.930515 0,0 41.588406,0 56.990864,0 15.402435,0 21.51527,-5.55799 21.51527,-20.930515 0,-15.37251 0,-57.192378 0,-57.192378 0,-15.8683991 -5.912585,-21.1799071 -21.51527,-21.1799071 z m -20.037509,28.6137151 6.995327,0 -22.532521,42.07537 -8.092405,0 m 32.523531,-35.333608 0.009,-6.694258 22.370654,17.63486 c -0.03203,2.082021 0.03204,4.481387 8e-6,6.563408 l -22.370659,17.634861 0.01799,-6.755149 18.361421,-14.132292 z m -52.373517,14.251429 18.36142,14.132292 0.01799,6.755149 -22.37066,-17.63486 c -0.03203,-2.082021 0.03204,-4.481387 8e-6,-6.563408 l 22.370654,-17.634861 0.009,6.694258 z" fill="currentColor" stroke="none" fill-opacity="1"></path></svg></g></svg>